<svg width="900" height="1200" viewBox="0 0 900 1200" fill="none" xmlns="http://www.w3.org/2000/svg">
  <rect width="900" height="1200" rx="72" fill="url(#bg)"/>
  <circle cx="744" cy="232" r="212" fill="#A7F3D0" fill-opacity="0.24"/>
  <circle cx="156" cy="952" r="186" fill="#064E3B" fill-opacity="0.22"/>
  <rect x="74" y="84" width="752" height="1032" rx="52" fill="white" fill-opacity="0.06" stroke="white" stroke-opacity="0.18"/>
  <rect x="126" y="156" width="648" height="326" rx="40" fill="#052E2B" fill-opacity="0.62" stroke="white" stroke-opacity="0.14"/>
  <rect x="160" y="194" width="182" height="34" rx="17" fill="#34D399"/>
  <rect x="160" y="254" width="420" height="26" rx="13" fill="white" fill-opacity="0.86"/>
  <rect x="160" y="296" width="304" height="22" rx="11" fill="white" fill-opacity="0.34"/>
  <path d="M170 408C170 374.863 196.863 348 230 348H670C703.137 348 730 374.863 730 408V408C730 441.137 703.137 468 670 468H230C196.863 468 170 441.137 170 408V408Z" fill="#D1FAE5"/>
  <circle cx="250" cy="408" r="34" fill="#064E3B"/>
  <path d="M233 408H267" stroke="#D1FAE5" stroke-width="12" stroke-linecap="round"/>
  <path d="M250 391V425" stroke="#D1FAE5" stroke-width="12" stroke-linecap="round"/>
  <rect x="304" y="390" width="190" height="20" rx="10" fill="#064E3B"/>
  <rect x="304" y="426" width="240" height="16" rx="8" fill="#064E3B" fill-opacity="0.34"/>
  <rect x="126" y="538" width="286" height="412" rx="36" fill="white" fill-opacity="0.08" stroke="white" stroke-opacity="0.14"/>
  <rect x="450" y="538" width="324" height="180" rx="36" fill="white" fill-opacity="0.08" stroke="white" stroke-opacity="0.14"/>
  <rect x="450" y="754" width="324" height="196" rx="36" fill="#ECFDF5" fill-opacity="0.92"/>
  <rect x="160" y="584" width="160" height="18" rx="9" fill="white" fill-opacity="0.82"/>
  <rect x="160" y="618" width="122" height="18" rx="9" fill="white" fill-opacity="0.34"/>
  <rect x="160" y="684" width="214" height="190" rx="28" fill="url(#screen)"/>
  <rect x="492" y="584" width="176" height="18" rx="9" fill="white" fill-opacity="0.82"/>
  <rect x="492" y="618" width="136" height="18" rx="9" fill="white" fill-opacity="0.34"/>
  <rect x="492" y="666" width="204" height="18" rx="9" fill="#6EE7B7"/>
  <rect x="492" y="702" width="164" height="18" rx="9" fill="#6EE7B7" fill-opacity="0.48"/>
  <rect x="492" y="806" width="168" height="22" rx="11" fill="#064E3B"/>
  <rect x="492" y="842" width="210" height="18" rx="9" fill="#064E3B" fill-opacity="0.34"/>
  <defs>
    <linearGradient id="bg" x1="80" y1="46" x2="792" y2="1146" gradientUnits="userSpaceOnUse">
      <stop stop-color="#022C22"/>
      <stop offset="0.56" stop-color="#065F46"/>
      <stop offset="1" stop-color="#10B981"/>
    </linearGradient>
    <linearGradient id="screen" x1="160" y1="684" x2="374" y2="874" gradientUnits="userSpaceOnUse">
      <stop stop-color="#ECFDF5"/>
      <stop offset="1" stop-color="#6EE7B7"/>
    </linearGradient>
  </defs>
</svg>
