<svg width="900" height="1200" viewBox="0 0 900 1200" fill="none" xmlns="http://www.w3.org/2000/svg">
  <rect width="900" height="1200" rx="72" fill="url(#bg)"/>
  <circle cx="726" cy="230" r="206" fill="#FDE68A" fill-opacity="0.32"/>
  <circle cx="154" cy="170" r="110" fill="white" fill-opacity="0.12"/>
  <rect x="72" y="84" width="756" height="1032" rx="52" fill="white" fill-opacity="0.08" stroke="white" stroke-opacity="0.22"/>
  <rect x="124" y="150" width="652" height="288" rx="38" fill="#FFF7ED" fill-opacity="0.92"/>
  <rect x="160" y="188" width="174" height="34" rx="17" fill="#FED7AA"/>
  <rect x="160" y="252" width="380" height="26" rx="13" fill="#7C2D12"/>
  <rect x="160" y="294" width="302" height="22" rx="11" fill="#9A3412" fill-opacity="0.45"/>
  <rect x="160" y="360" width="580" height="30" rx="15" fill="#FB923C"/>
  <rect x="126" y="492" width="308" height="468" rx="38" fill="#7C2D12" fill-opacity="0.16" stroke="white" stroke-opacity="0.14"/>
  <rect x="466" y="492" width="310" height="212" rx="38" fill="#7C2D12" fill-opacity="0.16" stroke="white" stroke-opacity="0.14"/>
  <rect x="466" y="744" width="310" height="216" rx="38" fill="#FFF7ED" fill-opacity="0.9"/>
  <path d="M176 624C176 587.549 205.549 558 242 558H318C354.451 558 384 587.549 384 624V830C384 866.451 354.451 896 318 896H242C205.549 896 176 866.451 176 830V624Z" fill="url(#board)"/>
  <rect x="510" y="546" width="158" height="18" rx="9" fill="white" fill-opacity="0.86"/>
  <rect x="510" y="580" width="124" height="18" rx="9" fill="white" fill-opacity="0.34"/>
  <rect x="510" y="636" width="202" height="20" rx="10" fill="#FDBA74"/>
  <rect x="510" y="672" width="148" height="20" rx="10" fill="#FDBA74" fill-opacity="0.48"/>
  <rect x="510" y="796" width="176" height="22" rx="11" fill="#7C2D12"/>
  <rect x="510" y="832" width="204" height="18" rx="9" fill="#9A3412" fill-opacity="0.38"/>
  <rect x="510" y="884" width="144" height="16" rx="8" fill="#F97316"/>
  <defs>
    <linearGradient id="bg" x1="82" y1="44" x2="784" y2="1152" gradientUnits="userSpaceOnUse">
      <stop stop-color="#431407"/>
      <stop offset="0.56" stop-color="#9A3412"/>
      <stop offset="1" stop-color="#F97316"/>
    </linearGradient>
    <linearGradient id="board" x1="176" y1="558" x2="384" y2="896" gradientUnits="userSpaceOnUse">
      <stop stop-color="#FFEDD5"/>
      <stop offset="1" stop-color="#FDBA74"/>
    </linearGradient>
  </defs>
</svg>
