<svg width="900" height="1200" viewBox="0 0 900 1200" fill="none" xmlns="http://www.w3.org/2000/svg">
  <rect width="900" height="1200" rx="72" fill="url(#bg)"/>
  <circle cx="726" cy="186" r="182" fill="url(#glow)" fill-opacity="0.72"/>
  <circle cx="190" cy="968" r="220" fill="#1D4ED8" fill-opacity="0.18"/>
  <rect x="74" y="84" width="752" height="1032" rx="52" fill="white" fill-opacity="0.08" stroke="white" stroke-opacity="0.2"/>
  <rect x="126" y="170" width="648" height="388" rx="38" fill="#0F172A" fill-opacity="0.68" stroke="white" stroke-opacity="0.18"/>
  <rect x="160" y="206" width="176" height="36" rx="18" fill="#60A5FA"/>
  <rect x="160" y="270" width="472" height="26" rx="13" fill="white" fill-opacity="0.84"/>
  <rect x="160" y="312" width="400" height="22" rx="11" fill="white" fill-opacity="0.4"/>
  <rect x="160" y="384" width="580" height="124" rx="30" fill="url(#card)"/>
  <circle cx="228" cy="446" r="36" fill="#F8FAFC"/>
  <path d="M228 424V446L244 454" stroke="#0F172A" stroke-width="14" stroke-linecap="round" stroke-linejoin="round"/>
  <rect x="286" y="412" width="168" height="22" rx="11" fill="#0F172A" fill-opacity="0.8"/>
  <rect x="286" y="448" width="240" height="18" rx="9" fill="#0F172A" fill-opacity="0.34"/>
  <rect x="126" y="606" width="306" height="390" rx="34" fill="white" fill-opacity="0.08" stroke="white" stroke-opacity="0.14"/>
  <rect x="468" y="606" width="306" height="244" rx="34" fill="white" fill-opacity="0.08" stroke="white" stroke-opacity="0.14"/>
  <rect x="468" y="882" width="306" height="114" rx="34" fill="#EFF6FF" fill-opacity="0.88"/>
  <rect x="158" y="648" width="178" height="18" rx="9" fill="white" fill-opacity="0.82"/>
  <rect x="158" y="684" width="140" height="18" rx="9" fill="white" fill-opacity="0.34"/>
  <path d="M205 820C205 783.549 234.549 754 271 754H287C323.451 754 353 783.549 353 820V836C353 872.451 323.451 902 287 902H271C234.549 902 205 872.451 205 836V820Z" fill="url(#device)"/>
  <rect x="530" y="648" width="154" height="18" rx="9" fill="white" fill-opacity="0.82"/>
  <rect x="530" y="684" width="116" height="18" rx="9" fill="white" fill-opacity="0.34"/>
  <rect x="530" y="738" width="176" height="18" rx="9" fill="#93C5FD"/>
  <rect x="530" y="774" width="148" height="18" rx="9" fill="#93C5FD" fill-opacity="0.54"/>
  <rect x="528" y="920" width="168" height="24" rx="12" fill="#0F172A"/>
  <rect x="528" y="956" width="122" height="18" rx="9" fill="#0F172A" fill-opacity="0.4"/>
  <defs>
    <linearGradient id="bg" x1="92" y1="46" x2="802" y2="1152" gradientUnits="userSpaceOnUse">
      <stop stop-color="#020617"/>
      <stop offset="0.55" stop-color="#0F172A"/>
      <stop offset="1" stop-color="#1E3A8A"/>
    </linearGradient>
    <radialGradient id="glow" cx="0" cy="0" r="1" gradientUnits="userSpaceOnUse" gradientTransform="translate(726 186) rotate(90) scale(182)">
      <stop stop-color="#93C5FD"/>
      <stop offset="1" stop-color="#93C5FD" stop-opacity="0"/>
    </radialGradient>
    <linearGradient id="card" x1="160" y1="384" x2="740" y2="508" gradientUnits="userSpaceOnUse">
      <stop stop-color="#DBEAFE"/>
      <stop offset="1" stop-color="#BFDBFE"/>
    </linearGradient>
    <linearGradient id="device" x1="205" y1="754" x2="353" y2="902" gradientUnits="userSpaceOnUse">
      <stop stop-color="#0F172A"/>
      <stop offset="1" stop-color="#2563EB"/>
    </linearGradient>
  </defs>
</svg>
